Coordinates
version=1
nRows=10
nColumns=40
inDegrees=yes

Units are S.I. units (second, meters, Newtons, ...)
Angles are in degrees.

endheader
time	pelvis_tilt	pelvis_list	pelvis_rotation	pelvis_tx	pelvis_ty	pelvis_tz	hip_flexion_r	hip_adduction_r	hip_rotation_r	knee_angle_r	knee_angle_r_beta	ankle_angle_r	subtalar_angle_r	mtp_angle_r	hip_flexion_l	hip_adduction_l	hip_rotation_l	knee_angle_l	knee_angle_l_beta	ankle_angle_l	subtalar_angle_l	mtp_angle_l	lumbar_extension	lumbar_bending	lumbar_rotation	arm_flex_r	arm_add_r	arm_rot_r	elbow_flex_r	pro_sup_r	wrist_flex_r	wrist_dev_r	arm_flex_l	arm_add_l	arm_rot_l	elbow_flex_l	pro_sup_l	wrist_flex_l	wrist_dev_l
     24.19500000	     -3.51352753	      0.35353900	     -0.00387051	      0.98791523	      0.91377818	      0.42801119	     30.93013795	     -6.01661482	    -16.64891652	     14.22536336	     14.22536336	      2.33703778	      3.42105474	     11.83591908	     -3.45655879	      0.94096497	    -14.41141276	     10.81782982	     10.81782982	     19.84970232	      2.79992517	     -8.01198103	    -10.09320881	     -1.30125093	     -0.70225255	    -19.35349026	    -14.90760752	     -3.42209613	     32.83108112	     46.17723103	      0.00000000	      0.00000000	     18.47557278	    -22.85548996	     -3.48658050	     91.27478381	     47.38630228	      0.00000000	      0.00000000
     24.20735714	     -3.60048009	      0.39728226	      0.32661703	      0.99119858	      0.91187218	      0.42906531	     30.73420771	     -6.03335336	    -16.74365876	     14.39990570	     14.39990570	      1.99328091	      3.24116640	     11.81736836	     -4.08053325	      0.84325530	    -14.11303018	     10.85972671	     10.85972671	     20.26112469	      2.93527278	     -8.12134285	     -9.68186701	     -1.34771537	     -0.96520963	    -19.90525709	    -14.95620489	     -3.40470136	     32.68402271	     46.17683019	      0.00000000	      0.00000000	     18.72946070	    -22.90501497	     -3.55294634	     91.57926626	     47.40061261	      0.00000000	      0.00000000
     24.21971429	     -3.58258032	      0.36750180	      0.63870178	      0.99465492	      0.91009713	      0.43047016	     30.38568578	     -5.87656879	    -16.32048156	     14.64521058	     14.64521058	     -0.13284056	      1.92693368	      6.55210956	     -4.71674425	      0.54657613	    -14.23453191	     11.23037737	     11.23037737	     21.46654045	      3.87802972	     -6.59451807	     -9.49845584	     -1.35502071	     -1.25377030	    -20.86106426	    -15.24854486	     -2.49472168	     34.30800235	     46.01923222	      0.00000000	      0.00000000	     18.37150827	    -22.95377969	     -3.99082963	     93.47953036	     47.55294733	      0.00000000	      0.00000000
     24.23207143	     -3.66293832	      0.11745123	      1.08715396	      0.99791125	      0.90870241	      0.43181581	     30.24100844	     -5.71653658	    -16.42784888	     15.46427349	     15.46427349	     -0.51880504	      1.39241298	      6.34218496	     -5.30859557	      0.05851165	    -13.82915583	     11.29623828	     11.29623828	     21.76236397	      4.01205410	     -6.62683449	     -9.17396602	     -1.06160078	     -1.43019955	    -21.17303721	    -15.25967508	     -2.44142857	     34.20213312	     46.01702573	      0.00000000	      0.00000000	     18.48743401	    -22.78875969	     -3.98795731	     93.67572268	     47.56074878	      0.00000000	      0.00000000
     24.24442857	     -3.74999687	     -0.03953830	      1.43236697	      1.00117036	      0.90715179	      0.43364251	     30.21305589	     -5.43689236	    -15.49032677	     16.37492598	     16.37492598	     -2.67421499	     -1.12118044	      0.79462585	     -5.61758699	     -0.49024113	    -13.98502851	     12.01790918	     12.01790918	     22.82083932	      4.81248617	     -5.38762824	     -8.90633655	     -0.95534134	     -1.59843743	    -21.53193025	    -15.50999314	     -1.34415836	     35.03080209	     45.89606141	      0.00000000	      0.00000000	     18.22001446	    -22.54048632	     -4.43162186	     94.54048719	     47.69379981	      0.00000000	      0.00000000
     24.25678571	     -3.86881698	     -0.33839586	      1.86303956	      1.00423158	      0.90610995	      0.43542124	     30.37010436	     -5.22056225	    -15.16507095	     17.83756621	     17.83756621	     -2.85099509	     -2.45729138	      0.26712835	     -5.95806370	     -1.11971527	    -13.60084463	     12.43087014	     12.43087014	     23.06870645	      4.77668072	     -5.35561249	     -8.63748481	     -0.65168081	     -1.67643944	    -21.51342553	    -15.49056660	     -1.21198571	     35.08223367	     45.88441285	      0.00000000	      0.00000000	     18.13247416	    -22.25213638	     -4.43119739	     94.68767055	     47.70826483	      0.00000000	      0.00000000
     24.26914286	     -3.88477711	     -0.81847577	      2.33234786	      1.00737360	      0.90572362	      0.43732550	     30.22913101	     -4.84646287	    -15.25239150	     19.04201794	     19.04201794	     -2.78731138	     -3.25884632	     -0.07643075	     -6.44077946	     -1.96167200	    -13.20082491	     12.73154665	     12.73154665	     23.15108313	      4.76211929	     -5.31939149	     -8.50982608	     -0.12915783	     -1.75018564	    -21.28625388	    -15.43994512	     -1.16403393	     35.17720505	     45.87894672	      0.00000000	      0.00000000	     17.86579745	    -21.88338246	     -4.30241697	     94.66776566	     47.70149593	      0.00000000	      0.00000000
     24.28150000	     -4.09112849	     -1.07981835	      2.74632658	      1.01006726	      0.90508654	      0.43951204	     30.60473712	     -4.57698473	    -14.52040651	     20.68946664	     20.68946664	     -2.65137759	     -5.36038220	     -0.69166223	     -6.23581963	     -2.69891761	    -12.91173003	     13.93246030	     13.93246030	     23.37413240	      4.60004756	     -5.32604592	     -8.25156195	      0.07535411	     -1.82050390	    -20.93429819	    -15.45658558	     -1.00189206	     35.41875733	     45.86053227	      0.00000000	      0.00000000	     17.56313508	    -21.59113358	     -4.47934168	     94.59444418	     47.72111040	      0.00000000	      0.00000000
     24.29385714	     -4.16116994	     -1.50936295	      3.17552969	      1.01284090	      0.90520504	      0.44179274	     30.54590977	     -4.13437145	    -14.26887640	     21.84826486	     21.84826486	     -2.28711757	     -6.75473175	     -1.09570114	     -6.15257902	     -3.63743639	    -12.60339756	     15.12056309	     15.12056309	     23.42466986	      4.43956775	     -5.34743092	     -8.15045234	      0.52205614	     -1.90583489	    -20.36688712	    -15.47609700	     -0.80326588	     35.69625324	     45.84040081	      0.00000000	      0.00000000	     17.08117906	    -21.19817765	     -4.55938719	     94.32536871	     47.72943305	      0.00000000	      0.00000000
     24.30621429	     -4.22564976	     -1.88100372	      3.57943148	      1.01552896	      0.90576772	      0.44415235	     30.37461957	     -3.73642115	    -14.18252832	     22.79775430	     22.79775430	     -1.69581398	     -7.78615935	     -1.34315380	     -5.92763050	     -4.53726439	    -12.24933917	     16.54099029	     16.54099029	     23.25917153	      4.08811991	     -5.49125667	     -8.09357459	      0.86544105	     -1.94072347	    -19.66085886	    -15.51566145	     -0.58751695	     35.99472987	     45.81983072	      0.00000000	      0.00000000	     16.54126631	    -20.79905984	     -4.60769885	     93.88239755	     47.73098063	      0.00000000	      0.00000000
